<svg xmlns="http://www.w3.org/2000/svg" viewBox="0 0 16 16" id="Aws--Streamline-Font-Awesome" height="16" width="16"><desc>Aws Streamline Icon: https://streamlinehq.com</desc><!--! Font Awesome Free 6.5.2 by @fontawesome - https://fontawesome.com License - https://fontawesome.com/license/free (Icons: CC BY 4.0, Fonts: SIL OFL 1.1, Code: MIT License) Copyright 2024 Fonticons, Inc.--><path d="M4.5800225 6.701997500000001c-0.01764 0.554915 0.259695 0.8006449999999999 0.26655500000000004 0.9567075000000002 -0.006627500000000001 0.06445250000000001 -0.044062500000000004 0.12170000000000002 -0.10044750000000001 0.1536125l-0.313595 0.2195175c-0.040585 0.02845 -0.088425 0.044765 -0.13793249999999999 0.04704 -0.010535000000000001 -0.00049 -0.2006525 0.0448325 -0.5017525 -0.6274350000000001 -0.37227750000000004 0.46469750000000004 -0.93857 0.7310650000000001 -1.5339200000000002 0.7215125 -0.39885250000000005 0.021805 -1.479775 -0.226375 -1.4241625000000002 -1.3771225 -0.0389525 -0.9378450000000002 0.8344575000000001 -1.520445 1.7377575 -1.4712 0.17394750000000003 0.00049 0.52919 0.009065 1.151235 0.1536125v-0.382685c0.065905 -0.6482575 -0.36014250000000003 -1.151235 -1.0978275 -1.0757775 -0.0587975 0.000245 -0.47529000000000005 -0.012247500000000001 -1.1230600000000002 0.2476925 -0.18031750000000002 0.0828075 -0.20334750000000001 0.06908750000000001 -0.26337000000000005 0.06908750000000001 -0.18154250000000002 0 -0.10682000000000001 -0.52625 -0.07203000000000001 -0.59289 0.1276425 -0.1567975 0.8785550000000001 -0.44956750000000006 1.6155024999999998 -0.4454025 0.49274750000000006 -0.043577500000000005 0.982855 0.10849750000000001 1.3643825 0.4233525 0.3134 0.3505575 0.46980750000000004 0.8140275000000001 0.4329075 1.2828l-0.000245 1.6975775Zm-2.117255 0.79354c0.79452 -0.011512500000000002 1.1309 -0.489255 1.2075850000000001 -0.7465025000000001 0.0602675 -0.24622000000000002 0.0502225 -0.4020375 0.0502225 -0.6712875 -0.23691 -0.05684 -0.577945 -0.11882250000000001 -0.9692025 -0.1193125 -0.37117 -0.02793 -1.0490725 0.13793249999999999 -1.022615 0.790355 -0.0303775 0.41135000000000005 0.27243750000000005 0.7692875 0.73401 0.7467475000000001Zm4.18747 0.5647175c-0.1925675 0.01764 -0.282235 -0.11906749999999999 -0.310655 -0.2540625l-1.22008 -4.0338575c-0.023765 -0.06811 -0.03944500000000001 -0.1384225 -0.04704 -0.21020750000000002 -0.009370000000000002 -0.061622500000000004 0.032955000000000005 -0.11919 0.09457 -0.1286225 0.00588 -0.00098 -0.05218500000000001 0 0.545115 0 0.2151075 -0.021560000000000003 0.285175 0.14773250000000002 0.30747 0.2540625l0.8751250000000002 3.4502775000000003 0.8124075 -3.4502775000000003c0.012985 -0.07889000000000002 0.07203000000000001 -0.2712125 0.313595 -0.25087750000000003h0.4204125000000001c0.053165 -0.00441 0.27219000000000004 -0.01225 0.310655 0.2540625l0.8187775 3.4943750000000002 0.9033 -3.4943750000000002c0.01176 -0.053410000000000006 0.0666375 -0.2785625 0.310655 -0.2540625h0.48313249999999996c0.0208225 -0.0031850000000000003 0.15067250000000001 -0.019845 0.1286225 0.21020750000000002 -0.010535000000000001 0.045325000000000004 0.0835425 -0.26116500000000004 -1.2923550000000001 4.16248 -0.028175000000000002 0.134995 -0.1180875 0.2717025 -0.310655 0.2540625h-0.4578975c-0.268025 0.028175000000000002 -0.30649000000000004 -0.2366675 -0.310655 -0.2633725l-0.812405 -3.3596275 -0.8030975 3.3562c-0.00392 0.026702500000000004 -0.042385000000000006 0.291545 -0.310655 0.26337000000000005h-0.4483425000000001Zm6.70015 0.13793249999999999c-0.1440575 0.000245 -0.8310275000000001 -0.00735 -1.4052975 -0.30110000000000003 -0.11699 -0.049535 -0.19254500000000002 -0.1647525 -0.1913425 -0.29179V7.341925000000001c0 -0.20701999999999998 0.15189750000000002 -0.169045 0.2163325 -0.1443025 0.24597500000000003 0.09947 0.40375249999999996 0.1749275 0.7058325000000001 0.2351975 0.8979100000000001 0.1844825 1.292845 -0.056350000000000004 1.3896175 -0.10975750000000001 0.32217 -0.1913425 0.34765 -0.6291500000000001 0.1286225 -0.8562625000000001 -0.256755 -0.21535000000000004 -0.3792525 -0.22343500000000002 -1.3016625 -0.51449 -0.11367750000000001 -0.031605 -1.0706325 -0.33344 -1.0728375 -1.2828 -0.014945 -0.6918675000000001 0.613715 -1.3763875 1.7032125000000002 -1.3707525 0.31041 -0.000245 1.137515 0.10118250000000001 1.3614425 0.382685 0.033075 0.0512025 0.049490000000000006 0.1114725 0.04704 0.1724775v0.24769000000000002c0 0.1087775 -0.03969 0.16316750000000002 -0.119315 0.16316750000000002 -0.18889 -0.021070000000000002 -0.524045 -0.27366 -1.2044000000000001 -0.26337000000000005 -0.16880250000000002 -0.00882 -0.9772875000000001 0.022292500000000003 -0.94103 0.611755 -0.0105325 0.46451000000000003 0.651935 0.6387025000000001 0.7276400000000001 0.6587925000000001 0.8932550000000001 0.26876000000000005 1.191905 0.31335 1.5464125 0.7246975 0.41992500000000005 0.5451175 0.1935475 1.1833325000000001 0.106575 1.3582575000000001 -0.46745250000000005 0.9184900000000001 -1.6762625 0.8437675000000001 -1.6968425 0.8432775Zm0.9848825 2.5690275000000002c-1.7157050000000003 1.2671175000000001 -4.206335 1.9415925000000003 -6.3329 1.9415925000000003 -2.86938 0.018922500000000002 -5.6420575 -1.0361575 -7.772987500000001 -2.957835 -0.15998250000000003 -0.1443025 -0.018865000000000003 -0.342015 0.17566250000000003 -0.2320125 2.3638325 1.3521725 5.0401875 2.062645 7.7634325 2.0609075000000003 2.033645 -0.0109075 4.045105 -0.42345750000000004 5.9188575000000005 -1.2139550000000001 0.288605 -0.12250000000000001 0.533355 0.19109500000000001 0.24793500000000002 0.4013025Zm0.715145 -0.8155925c-0.2195175 -0.282235 -1.4523375 -0.13180750000000002 -2.0043125 -0.0659025 -0.16635250000000001 0.018865000000000003 -0.19452750000000002 -0.12544 -0.043855000000000005 -0.2320125 0.9817 -0.6901525000000001 2.5940175 -0.49244250000000006 2.779235 -0.26043 0.1849725 0.23201000000000002 -0.050225 1.847515 -0.9692050000000001 2.6192525 -0.1411175 0.1193125 -0.27611 0.056347499999999995 -0.21339000000000002 -0.10045 0.20677500000000004 -0.520615 0.6710425 -1.6779775000000001 0.4515275 -1.9604575000000002Z" fill="#000000" stroke-width="0.025"></path></svg>